# xmcd
# Copyright (C) 1995-1998 Ti Kan
#
# Track frame offsets:
#       150
#       14326
#       29903
#       52380
#       68368
#       88204
#       105858
#       128010
#       142500
#       160898
#       187021
#       200433
#       214568
#       229690
#       250868
#       265295
#       283006
#       299498
#       327618
#       344682
#
# Disc length: 4796 seconds
#
# Revision: 0
# Processed by: cddbd v1.5.2PL0 Copyright (c) Steve Scherf et al.
# Submitted via: CD-Transfer v1.0
#
DISCID=3412ba14
DTITLE=2019 - 
DYEAR=1900
DGENRE=
TTITLE0=Mixer (2019)
TTITLE1=Landslide (2019)
TTITLE2=Your Light (2019)
TTITLE3=Chatroom (2019)
TTITLE4=Promised Land (2019)
TTITLE5=Cross The Line (2019)
TTITLE6=In Degrees (2019)
TTITLE7=About Work The Dancefloor (2019)
TTITLE8=Texas Sun (2019)
TTITLE9=A Pretty Red (2019)
TTITLE10=Deal Wit It With Slowthai (2019)
TTITLE11=Fool, The (2019)
TTITLE12=Outlaw Shadow Country (2019)
TTITLE13=New Tribe (2019)
TTITLE14=Don't Waste My Time (2019)
TTITLE15=Kel Tinawen (2019)
TTITLE16=Tata Fatigue (2019)
TTITLE17=Symetry (2019)
TTITLE18=Superposition (2019)
TTITLE19=Only Human (2019)
EXTD=
EXTT0=
EXTT1=
EXTT2=
EXTT3=
EXTT4=
EXTT5=
EXTT6=
EXTT7=
EXTT8=
EXTT9=
EXTT10=
EXTT11=
EXTT12=
EXTT13=
EXTT14=
EXTT15=
EXTT16=
EXTT17=
EXTT18=
EXTT19=
PLAYORDER=
